<?xml version="1.0" standalone="no"?>
<!DOCTYPE svg PUBLIC "-//W3C//DTD SVG 1.1//EN" "http://www.w3.org/Graphics/SVG/1.1/DTD/svg11.dtd" >
<svg xmlns="http://www.w3.org/2000/svg">
<metadata></metadata>
<defs>
<font id="bauhaus_md_btbold" horiz-adv-x="1157" >
<font-face units-per-em="2048" ascent="1638" descent="-410" />
<missing-glyph horiz-adv-x="578" />
<glyph horiz-adv-x="2048" />
<glyph horiz-adv-x="2048" />
<glyph unicode="&#xd;" horiz-adv-x="578" />
<glyph unicode=" "  horiz-adv-x="578" />
<glyph unicode="&#x09;" horiz-adv-x="578" />
<glyph unicode="&#xa0;" horiz-adv-x="578" />
<glyph unicode="!" horiz-adv-x="672" d="M131 176q0 87 58 146t145 59t146 -59t59 -146q0 -84 -60 -143.5t-145 -59.5t-144 59.5t-59 143.5zM145 1432h379l-24 -971h-328z" />
<glyph unicode="&#x22;" horiz-adv-x="713" d="M76 877v561h219v-561h-219zM416 877v561h223v-561h-223z" />
<glyph unicode="#" horiz-adv-x="1575" d="M23 381l86 231h270l82 230h-283l86 231h279l141 393h250l-139 -393h235l141 393h250l-139 -393h270l-86 -231h-268l-80 -230h277l-84 -231h-275l-141 -393h-250l139 393h-235l-141 -393h-250l139 393h-274zM625 610h245l82 232h-245z" />
<glyph unicode="$" d="M215 1063q0 128 77.5 208t213.5 91v188h192v-188h224v-260h-289q-51 0 -72.5 -12t-21.5 -39q0 -17 12 -34t37 -36l246 -178q88 -64 131 -138t43 -163q0 -141 -79 -231t-231 -124v-227h-192v227h-283v293h328q58 0 86.5 16.5t28.5 49.5q0 18 -11 35.5t-33 34.5l-200 153 q-115 89 -161 164.5t-46 169.5z" />
<glyph unicode="%" horiz-adv-x="1796" d="M72 1063q0 153 107.5 260t260.5 107q154 0 261.5 -107t107.5 -260q0 -155 -107.5 -263t-261.5 -108q-153 0 -260.5 108t-107.5 263zM295 1063q0 -60 43 -104t102 -44q61 0 104.5 43.5t43.5 104.5t-43 103t-105 42q-61 0 -103 -42t-42 -103zM340 0l893 1430h215 l-893 -1430h-215zM983 367q0 153 107.5 260.5t261.5 107.5q153 0 260.5 -107.5t107.5 -260.5q0 -155 -107 -261t-261 -106q-155 0 -262 106t-107 261zM1206 367q0 -60 43 -103t103 -43q61 0 104 42.5t43 103.5t-43 104t-104 43t-103.5 -43t-42.5 -104z" />
<glyph unicode="&#x26;" horiz-adv-x="1565" d="M98 557q0 140 63.5 253.5t186.5 195.5l-69 81q-24 31 -37 65t-13 69q0 91 75.5 151t193.5 60h600v-304h-439l445 -553q4 25 6 48t2 45q0 57 -22 109t-72 110l256 192q92 -95 136 -198t44 -222q0 -94 -31 -188t-94 -188l230 -283h-426l-48 59q-88 -41 -177.5 -61.5 t-180.5 -20.5q-135 0 -252 45t-205 130q-83 81 -127.5 186t-44.5 219zM459 549q0 -108 76.5 -178t193.5 -70q35 0 72 6.5t78 20.5l-330 424q-46 -49 -68 -99t-22 -104z" />
<glyph unicode="'" horiz-adv-x="371" d="M76 877v561h219v-561h-219z" />
<glyph unicode="(" horiz-adv-x="811" d="M152 487q0 292 110.5 534t333.5 435l162 -166q-174 -160 -263 -358t-89 -426q0 -231 90 -431t274 -378l-170 -172q-221 197 -334.5 440.5t-113.5 521.5z" />
<glyph unicode=")" horiz-adv-x="811" d="M39 1284l172 172q221 -196 334.5 -441t113.5 -523q0 -292 -110.5 -532.5t-333.5 -434.5l-162 164q177 166 265 361.5t88 422.5q0 230 -91.5 431.5t-275.5 379.5z" />
<glyph unicode="*" horiz-adv-x="1010" d="M123 1012l291 65l-289 70l131 227l203 -217l-86 283h264l-88 -283l201 217l133 -227l-289 -70l291 -65l-131 -228l-205 215l84 -284h-262l88 284l-205 -215z" />
<glyph unicode="+" horiz-adv-x="1706" d="M254 496v231h481v494h238v-494h479v-231h-479v-496h-238v496h-481z" />
<glyph unicode="," horiz-adv-x="578" d="M33 -305l114 614h347l-215 -614h-246z" />
<glyph unicode="-" horiz-adv-x="678" d="M70 379v264h538v-264h-538z" />
<glyph unicode="." horiz-adv-x="578" d="M84 176q0 87 59 146t146 59t146 -59t59 -146q0 -84 -60 -143.5t-145 -59.5t-145 59.5t-60 143.5z" />
<glyph unicode="/" horiz-adv-x="559" d="M-72 -190l523 1646h182l-522 -1646h-183z" />
<glyph unicode="0" d="M66 451v530q0 203 146 339t366 136q217 0 365.5 -136.5t148.5 -338.5v-530q0 -203 -147.5 -339.5t-366.5 -136.5q-221 0 -366.5 136t-145.5 340zM408 483q0 -81 48 -134.5t122 -53.5q72 0 122 54t50 134v473q0 82 -49.5 135.5t-122.5 53.5t-121.5 -54t-48.5 -135v-473z " />
<glyph unicode="1" d="M281 1108v324h557v-1432h-338v1108h-219z" />
<glyph unicode="2" d="M90 188q0 59 28.5 117t88.5 123l432 461q29 31 44 62.5t15 62.5q0 55 -38.5 91t-98.5 36q-54 0 -91.5 -37.5t-37.5 -91.5q0 -38 20 -72.5t60 -65.5l-221 -235q-100 76 -146.5 164t-46.5 201q0 196 135 324t342 128q204 0 334.5 -124.5t130.5 -315.5q0 -208 -253 -451 l-15 -14l-227 -219h520v-332h-764q-105 0 -158 47.5t-53 140.5z" />
<glyph unicode="3" d="M100 0v332h424q99 0 152 36.5t53 104.5q0 65 -49.5 103t-134.5 38h-242v201l320 299h-500v318h561q151 0 236.5 -61.5t85.5 -168.5q0 -49 -23.5 -98t-64.5 -86l-187 -170q160 -28 246 -129.5t86 -263.5q0 -209 -127 -332t-342 -123h-494z" />
<glyph unicode="4" d="M51 518q0 45 12.5 89.5t36.5 86.5l410 738h338l-473 -830h268v330l305 534v-854h162v-323h-162v-289h-305v289h-321q-126 0 -198.5 61.5t-72.5 167.5z" />
<glyph unicode="5" d="M109 0v332h413q97 0 149 40.5t52 116.5q0 71 -49.5 114.5t-130.5 43.5h-402v785h807v-308h-467v-157h111q218 0 342.5 -127.5t124.5 -350.5q0 -238 -132 -363.5t-380 -125.5h-438z" />
<glyph unicode="6" d="M66 463q0 96 35.5 201t131.5 276l277 492h385l-428 -764q-39 -69 -51.5 -104.5t-12.5 -67.5q0 -81 48 -131t124 -50q75 0 125 53.5t50 133.5q0 77 -51 124.5t-134 47.5h-4l162 293q184 -40 281.5 -156t97.5 -295q0 -239 -149.5 -390t-387.5 -151q-101 0 -193 37.5 t-161 106.5t-107 159t-38 185z" />
<glyph unicode="7" d="M96 1104v328h656q148 0 221.5 -56.5t73.5 -169.5q-1 -23 -3.5 -43t-7.5 -39l-352 -1124h-381l377 1104h-584z" />
<glyph unicode="8" d="M61 428q0 120 56 212.5t157 139.5q-79 65 -118 139t-39 158q0 162 130.5 270.5t330.5 108.5t331 -108.5t131 -270.5q0 -84 -39 -158t-118 -139q100 -48 157.5 -142.5t57.5 -213.5q0 -194 -146.5 -321.5t-373.5 -127.5q-230 0 -373.5 126.5t-143.5 326.5zM393 469 q0 -77 53 -128.5t132 -51.5q78 0 132 52t54 128q0 75 -54.5 127.5t-131.5 52.5q-79 0 -132 -52t-53 -128zM426 1040q0 -61 43.5 -102t108.5 -41q64 0 108.5 41.5t44.5 101.5q0 62 -43.5 103t-109.5 41t-109 -41t-43 -103z" />
<glyph unicode="9" d="M55 915q0 239 149.5 390t387.5 151q101 0 193 -37t161 -106q70 -70 108 -159.5t38 -184.5q0 -96 -36 -201.5t-132 -275.5l-277 -492h-385l428 764q39 68 51.5 104t12.5 68q0 80 -48 130t-124 50q-74 0 -124 -53.5t-50 -132.5t50.5 -125.5t137.5 -46.5l-162 -293 q-184 40 -281.5 156t-97.5 294z" />
<glyph unicode=":" horiz-adv-x="635" d="M113 176q0 87 59 146t145 59q87 0 146 -59t59 -146q0 -84 -60 -143.5t-145 -59.5q-84 0 -144 59.5t-60 143.5zM113 788q0 87 59 146t145 59q87 0 146 -59t59 -146q0 -84 -60 -144t-145 -60q-84 0 -144 60t-60 144z" />
<glyph unicode=";" horiz-adv-x="635" d="M43 -305l115 614h348l-217 -614h-246zM131 788q0 87 58 146t145 59t146 -59t59 -146q0 -84 -60.5 -144t-144.5 -60t-143.5 60t-59.5 144z" />
<glyph unicode="&#x3c;" horiz-adv-x="1706" d="M264 494v233l1178 487v-253l-854 -351l854 -348v-254z" />
<glyph unicode="=" horiz-adv-x="1706" d="M254 272v230h1198v-230h-1198zM254 719v231h1198v-231h-1198z" />
<glyph unicode="&#x3e;" horiz-adv-x="1706" d="M264 8v254l854 348l-854 351v253l1178 -487v-233z" />
<glyph unicode="?" horiz-adv-x="1063" d="M39 1081q46 183 169.5 280t309.5 97q211 0 344 -130.5t133 -336.5q0 -160 -87 -266.5t-244 -136.5v-127h-326v409h82q113 0 167 34.5t54 105.5q0 57 -37.5 93t-97.5 36q-61 0 -97 -36t-47 -106zM303 176q0 86 59.5 145.5t145.5 59.5t145.5 -59.5t59.5 -145.5 q0 -84 -60 -143.5t-145 -59.5q-84 0 -144.5 60t-60.5 143z" />
<glyph unicode="@" horiz-adv-x="2048" d="M82 520q0 169 53 320.5t156 277.5q148 183 359.5 278t467.5 95q170 0 320 -46t260 -132q136 -107 203 -243t67 -306q0 -167 -65.5 -307t-190.5 -240q-69 -56 -154 -85.5t-176 -29.5q-106 0 -161 40t-60 120q-56 -82 -126.5 -120t-168.5 -38q-163 0 -247 87.5t-84 257.5 q0 241 141.5 404t349.5 163q77 0 134 -30.5t95 -92.5l52 92h206l-153 -610q0 -2 -1 -6q-3 -18 -3 -27q0 -30 16 -44.5t47 -14.5q137 0 240.5 143.5t103.5 335.5q0 239 -179.5 390t-467.5 151q-148 0 -274 -36.5t-230 -109.5q-155 -110 -239 -274.5t-84 -356.5 q0 -302 203 -481.5t544 -179.5q164 0 316 47.5t280 138.5l97 -135q-156 -117 -329 -175t-364 -58q-192 0 -354.5 49t-288.5 145q-157 122 -234 281.5t-77 361.5zM778 444q0 -83 35 -128.5t98 -45.5q84 0 148 59t88 158l51 209q-9 76 -50 116t-110 40q-103 0 -181.5 -121.5 t-78.5 -286.5z" />
<glyph unicode="A" horiz-adv-x="1280" d="M94 0v846q0 279 149 444.5t396 165.5t397 -166t150 -444v-846h-355v530h-319v336h319v17q0 103 -52 164t-140 61q-93 0 -141.5 -62.5t-48.5 -181.5v-864h-355z" />
<glyph unicode="B" horiz-adv-x="1208" d="M94 2v936q0 233 142.5 376.5t373.5 143.5q204 0 342 -124t138 -304q0 -85 -39.5 -150t-118.5 -112q112 -52 171.5 -142t59.5 -208q0 -81 -27 -151t-79 -126q-73 -76 -170.5 -108.5t-278.5 -32.5h-100v319h121q79 0 123.5 35.5t44.5 98.5t-44.5 99t-123.5 36h-121v286h53 q88 0 132 34t44 102q0 58 -38 96.5t-95 38.5q-75 0 -114 -51t-39 -148v-944h-357z" />
<glyph unicode="C" horiz-adv-x="1040" d="M57 717q0 185 85 339t243 255q96 61 236 91t327 30h37v-336q-14 1 -30.5 1.5t-49.5 0.5q-234 0 -358.5 -98.5t-124.5 -282.5q0 -186 124.5 -284.5t358.5 -98.5q33 0 50 0.5t30 0.5v-335h-37q-187 0 -327 30t-236 91q-157 101 -242.5 256t-85.5 340z" />
<glyph unicode="D" horiz-adv-x="1315" d="M106 0v1432h263q209 0 329 -25.5t213 -83.5q167 -104 258 -262t91 -344q0 -178 -83 -333.5t-233 -260.5q-80 -55 -186 -86t-240 -37v344q167 6 271 110.5t104 264.5q0 163 -110.5 269t-284.5 106q-6 0 -17.5 -1t-17.5 -1v-1092h-357z" />
<glyph unicode="E" horiz-adv-x="1071" d="M57 717q0 185 85 339t243 255q96 61 236 91t327 30h37v-326q-14 1 -29.5 1.5t-44.5 0.5q-188 0 -299 -55t-159 -170h532v-320h-539q36 -118 154 -177.5t318 -59.5q27 0 41.5 0.5t25.5 0.5v-327h-37q-187 0 -327 30t-236 91q-157 101 -242.5 256t-85.5 340z" />
<glyph unicode="F" horiz-adv-x="938" d="M96 0v952q0 244 123 362t377 118h254v-334h-248q-74 0 -111.5 -37.5t-37.5 -110.5v-94h397v-334h-397v-522h-357z" />
<glyph unicode="G" horiz-adv-x="1583" d="M59 717q0 149 55.5 282.5t161.5 239.5q105 107 243 163t294 56q152 0 289.5 -55.5t261.5 -167.5l-240 -254q-78 69 -154.5 102t-156.5 33q-164 0 -275.5 -114t-111.5 -283q0 -165 108 -276t267 -111q112 0 198 63t127 176h-352v318h748v-60q0 -142 -21 -252.5t-65 -199.5 q-91 -188 -259.5 -295t-373.5 -107q-154 0 -289 56t-240 162q-104 106 -159.5 240.5t-55.5 283.5z" />
<glyph unicode="H" horiz-adv-x="1305" d="M106 0v1432h357v-508h379v508h354v-1432h-354v578h-379v-578h-357z" />
<glyph unicode="I" horiz-adv-x="578" d="M111 0v1432h356v-1432h-356z" />
<glyph unicode="J" horiz-adv-x="862" d="M12 0v334h248q74 0 112 37t38 110v951h356v-953q0 -244 -123 -361.5t-377 -117.5h-254z" />
<glyph unicode="K" horiz-adv-x="1237" d="M106 0v1432h357v-496h51q105 0 197 210q10 22 14 31l113 255h397l-199 -414l-1 -4q-66 -138 -154 -183q147 -25 205.5 -110.5t58.5 -294.5v-426h-352v375q0 125 -40.5 169t-144.5 44h-145v-588h-357z" />
<glyph unicode="L" horiz-adv-x="887" d="M96 479v953h357v-951q0 -73 37.5 -110t111.5 -37h277v-334h-283q-254 0 -377 117.5t-123 361.5z" />
<glyph unicode="M" horiz-adv-x="1716" d="M27 0l155 1159q18 141 88 218t179 77q103 0 173 -68t101 -198l94 -397q14 -57 24 -126.5t17 -158.5q7 89 17 158.5t24 126.5l94 397q31 130 101 198t174 68q109 0 178.5 -77t87.5 -218l156 -1159h-342l-80 895q-6 70 -11 136.5t-8 127.5q-17 -90 -28.5 -149t-22.5 -105 l-149 -696q-26 -119 -70.5 -170t-120.5 -51q-75 0 -119.5 51t-70.5 170l-150 696q-13 63 -48 239l-3 15q0 -100 -14 -241q-2 -16 -2 -23l-80 -895h-344z" />
<glyph unicode="N" horiz-adv-x="1352" d="M104 0v1212q0 115 59.5 182.5t158.5 67.5q82 0 141 -46.5t131 -178.5l188 -340q59 -107 92.5 -180t53.5 -135q-12 132 -18.5 239t-6.5 164v447h344v-1260q0 -87 -49.5 -141t-130.5 -54q-69 0 -117.5 36t-105.5 139l-279 503q-9 17 -27 50q-93 167 -128 270 q20 -143 29.5 -260.5t9.5 -220.5v-494h-345z" />
<glyph unicode="O" horiz-adv-x="1583" d="M57 717q0 149 55.5 282.5t161.5 241.5q105 105 238 160t281 55t282 -56t238 -161q103 -104 158 -238t55 -284q0 -151 -55 -286t-158 -238q-104 -106 -238 -162t-282 -56q-147 0 -280 56t-239 162q-106 108 -161.5 241t-55.5 283zM422 719q0 -161 109 -274t262 -113 t260.5 112.5t107.5 274.5t-107 273.5t-261 111.5q-155 0 -263 -112t-108 -273z" />
<glyph unicode="P" horiz-adv-x="1176" d="M94 0v922q0 241 144 388.5t380 147.5q217 0 363.5 -144.5t146.5 -355.5q0 -225 -157.5 -362t-419.5 -137h-37v342h55q91 0 143 43.5t52 118.5q0 66 -43.5 109.5t-110.5 43.5q-75 0 -117 -50.5t-42 -141.5v-924h-357z" />
<glyph unicode="Q" horiz-adv-x="1583" d="M57 717q0 149 55.5 283.5t159.5 238.5q104 105 238 161t283 56q148 0 281 -55.5t237 -161.5q106 -106 162.5 -243t56.5 -287q0 -273 -159 -467.5t-427 -247.5v-193h-307v754h307v-178q106 40 162.5 127t56.5 209q0 168 -106.5 279.5t-263.5 111.5q-155 0 -263 -110.5 t-108 -270.5q0 -90 35 -167t104 -138v-406q-237 83 -370.5 269t-133.5 436z" />
<glyph unicode="R" horiz-adv-x="1194" d="M94 2v936q0 233 141.5 376.5t370.5 143.5q209 0 355.5 -122.5t146.5 -293.5q0 -109 -62 -192t-172 -119q137 -15 196.5 -83.5t59.5 -213.5v-434h-356v346q0 113 -48 155t-185 42h-33v321h53q86 0 130 34t44 101q0 58 -37.5 96t-93.5 38q-73 0 -113 -52t-40 -147v-932 h-357z" />
<glyph unicode="S" horiz-adv-x="1100" d="M66 0v342h493q43 0 66.5 18t23.5 52q0 30 -24 59.5t-74 60.5l-275 166q-94 58 -150 149.5t-56 188.5q0 94 32 170.5t95 130.5q59 52 145 73.5t279 21.5h327v-328h-375q-78 0 -107.5 -12.5t-29.5 -42.5q0 -29 23 -57.5t71 -57.5l269 -160q115 -70 175 -166t60 -209 q0 -97 -41 -180t-114 -135q-64 -45 -144 -64.5t-254 -19.5h-22h-393z" />
<glyph unicode="T" horiz-adv-x="1020" d="M25 1098v334h970v-334h-307v-1098h-356v1098h-307z" />
<glyph unicode="U" horiz-adv-x="1280" d="M94 586v846h355v-867q0 -116 49 -177.5t141 -61.5q94 0 143 61.5t49 177.5v867h353v-846q0 -279 -149 -445t-396 -166t-396 166t-149 445z" />
<glyph unicode="V" horiz-adv-x="1133" d="M-33 1432h357l190 -760q11 -42 24.5 -107.5t28.5 -146.5q20 105 31.5 163.5t19.5 90.5l191 760h356l-291 -1129q-45 -176 -116.5 -252t-190.5 -76t-191.5 76.5t-117.5 251.5z" />
<glyph unicode="W" horiz-adv-x="1872" d="M96 545v887h348v-910q0 -97 41.5 -148.5t118.5 -51.5q78 0 119 51.5t41 148.5v910h344v-910q0 -97 41 -148.5t119 -51.5q77 0 118 51.5t41 148.5v910h349v-887q0 -261 -138.5 -415.5t-369.5 -154.5q-92 0 -174.5 37.5t-157.5 112.5q-75 -75 -157.5 -112.5t-174.5 -37.5 q-230 0 -369 155t-139 415z" />
<glyph unicode="X" horiz-adv-x="1298" d="M43 0v335q200 9 312 109.5t112 272.5q0 171 -112 271t-312 108v335q204 -9 353 -78t253 -202q104 133 253 202t353 78v-335q-200 -8 -312 -108t-112 -271q0 -172 112 -272.5t312 -108.5v-336q-207 12 -356.5 81t-249.5 198q-100 -129 -249.5 -198t-356.5 -81z" />
<glyph unicode="Y" horiz-adv-x="1165" d="M86 1022v410h352v-449q0 -88 38 -135t108 -47q69 0 106 47t37 135v449h354v-410q0 -201 -80 -332t-241 -194v-496h-354v498q-162 64 -241 193.5t-79 330.5z" />
<glyph unicode="Z" horiz-adv-x="1090" d="M23 213q0 40 15 82t44 82l530 721h-514v334h729q108 0 173 -58.5t65 -154.5q0 -40 -15 -81t-44 -83l-521 -713h580v-342h-807q-107 0 -171 58t-64 155z" />
<glyph unicode="[" horiz-adv-x="692" d="M176 -453v1885h426v-134h-168v-1617h168v-134h-426z" />
<glyph unicode="\" horiz-adv-x="559" d="M-72 1456h183l522 -1646h-184z" />
<glyph unicode="]" horiz-adv-x="692" d="M90 -319h168v1617h-168v134h426v-1885h-426v134z" />
<glyph unicode="^" horiz-adv-x="2048" d="M414 899l465 563h288l465 -563h-264l-344 342l-346 -342h-264z" />
<glyph unicode="_" horiz-adv-x="1024" d="M0 -244h1024v-239h-1024v239z" />
<glyph unicode="`" horiz-adv-x="1024" d="M219 1497h258l197 -371h-142z" />
<glyph unicode="a" horiz-adv-x="1149" d="M49 510q0 228 144 376t366 148q153 0 277 -78.5t186 -214.5q24 -52 34.5 -115.5t10.5 -201.5v-424h-317v485q0 112 -49 169t-146 57q-80 0 -130 -55.5t-50 -145.5q0 -93 52.5 -148t143.5 -55q22 0 51 6t76 21v-332q-39 -8 -74 -12t-65 -4q-222 0 -366 148t-144 376z" />
<glyph unicode="b" horiz-adv-x="1149" d="M84 582v28v822h315v-893q0 -111 51.5 -173.5t143.5 -62.5q76 0 128 62t52 149q0 100 -52 156.5t-144 56.5q-22 0 -51 -6t-76 -21v332q39 8 74 12.5t65 4.5q223 0 366.5 -150.5t143.5 -386.5q0 -224 -146.5 -377t-363.5 -153q-145 0 -271 82t-192 217q-23 57 -33 120.5 t-10 180.5z" />
<glyph unicode="c" horiz-adv-x="809" d="M51 508q0 228 162 367t432 139h119v-309h-139q-114 0 -181 -54.5t-67 -144.5t67 -143.5t181 -53.5h139v-309h-119q-270 0 -432 139.5t-162 368.5z" />
<glyph unicode="d" horiz-adv-x="1149" d="M49 506q0 228 144 376t366 148q30 0 65 -4t74 -12v-332q-40 13 -71.5 19t-55.5 6q-91 0 -143.5 -54t-52.5 -147t50.5 -147t135.5 -54q92 0 140.5 58t48.5 167v902h317v-842q0 -138 -10.5 -200.5t-34.5 -115.5q-62 -135 -186 -213.5t-277 -78.5q-222 0 -366 147.5 t-144 376.5z" />
<glyph unicode="e" horiz-adv-x="1133" d="M51 508q0 107 38.5 202t113.5 171q72 73 164.5 112t195.5 39q154 0 277 -81.5t202 -237.5l-491 -334l-123 186l266 185q-26 17 -54 25.5t-58 8.5q-94 0 -160 -71.5t-66 -175.5q0 -106 65 -178t159 -72q88 0 163.5 53t128.5 154l242 -117q-80 -189 -224 -292t-327 -103 q-101 0 -194.5 39.5t-165.5 113.5q-75 76 -113.5 171t-38.5 202z" />
<glyph unicode="f" horiz-adv-x="721" d="M94 0v1012q0 216 109.5 318t341.5 102h166v-299h-193q-59 0 -82.5 -22t-23.5 -77v-20h299v-297h-299v-717h-318z" />
<glyph unicode="g" horiz-adv-x="1149" d="M51 514q0 225 145 372.5t365 147.5q153 0 276 -78t185 -215q24 -52 34.5 -115.5t10.5 -201.5v-367q0 -245 -136 -378.5t-388 -133.5q-89 0 -179 11.5t-178 33.5v308q87 -28 165 -42t149 -14q142 0 196 55t54 214v374q0 113 -48.5 169.5t-144.5 56.5q-80 0 -130 -55.5 t-50 -145.5q0 -93 52.5 -148t143.5 -55q22 0 51 6t76 21v-322q-43 -8 -77.5 -12t-63.5 -4q-221 0 -364.5 146.5t-143.5 371.5z" />
<glyph unicode="h" horiz-adv-x="1108" d="M94 0v1432h318v-484q48 43 107 64.5t124 21.5q174 0 277.5 -134t103.5 -365v-535h-317v565q0 71 -41.5 115.5t-106.5 44.5q-64 0 -105.5 -44.5t-41.5 -115.5v-565h-318z" />
<glyph unicode="i" horiz-adv-x="512" d="M70 1288q0 77 54.5 131t131.5 54t131.5 -54t54.5 -131t-54.5 -131.5t-131.5 -54.5t-131.5 54.5t-54.5 131.5zM94 0v1014h324v-1014h-324z" />
<glyph unicode="j" horiz-adv-x="512" d="M-152 -137h144q59 0 82.5 21.5t23.5 76.5v1053h318v-1030q0 -217 -109.5 -318.5t-341.5 -101.5h-117v299zM72 1288q0 77 54.5 131t131.5 54t131.5 -54t54.5 -131t-54.5 -131.5t-131.5 -54.5t-131.5 54.5t-54.5 131.5z" />
<glyph unicode="k" horiz-adv-x="1063" d="M94 0v1432h318v-744h59q48 0 80.5 33t66.5 123l66 170h336l-119 -307q-17 -44 -50.5 -75t-80.5 -46q119 -29 172 -103t53 -213v-270h-317v231q0 84 -37 123t-115 39h-114v-393h-318z" />
<glyph unicode="l" horiz-adv-x="512" d="M94 0v1432h324v-1432h-324z" />
<glyph unicode="m" horiz-adv-x="1638" d="M84 0v535q0 225 120.5 362t313.5 137q87 0 163.5 -34t135.5 -99q61 64 137 98.5t154 34.5q202 0 324 -135.5t122 -363.5v-535h-315v584q0 62 -37 102.5t-94 40.5t-95 -40.5t-38 -102.5v-584h-313v584q0 62 -38 102.5t-96 40.5q-57 0 -94 -40.5t-37 -102.5v-584h-313z" />
<glyph unicode="n" horiz-adv-x="1096" d="M82 0v514q0 238 127.5 379t337.5 141q114 0 213.5 -50.5t167.5 -143.5q44 -62 64 -137t20 -189v-514h-318v565q0 71 -41 115.5t-106 44.5t-106.5 -44.5t-41.5 -115.5v-565h-317z" />
<glyph unicode="o" horiz-adv-x="1128" d="M51 508q0 106 38.5 200.5t113.5 172.5q73 74 165.5 113.5t194.5 39.5q104 0 197.5 -39.5t165.5 -113.5q73 -75 111 -170.5t38 -202.5t-38 -202.5t-111 -170.5q-72 -74 -165.5 -113.5t-197.5 -39.5q-102 0 -194.5 39.5t-165.5 113.5q-75 78 -113.5 172.5t-38.5 200.5z M379 510q0 -86 54 -146.5t130 -60.5q77 0 132 60.5t55 146.5t-55 146.5t-132 60.5q-76 0 -130 -60.5t-54 -146.5z" />
<glyph unicode="p" horiz-adv-x="1149" d="M84 -436v889q0 116 10 177t33 111q62 136 186 214.5t277 78.5q221 0 365.5 -148t144.5 -376t-144 -376t-366 -148q-30 0 -65 4t-74 12v332q47 -15 76 -21t51 -6q90 0 143 55t53 148q0 92 -50.5 146.5t-135.5 54.5q-92 0 -140.5 -58t-48.5 -168v-921h-315z" />
<glyph unicode="q" horiz-adv-x="1149" d="M49 510q0 228 144 376t366 148q153 0 277 -78.5t186 -214.5q24 -52 34.5 -115.5t10.5 -201.5v-860h-317v921q0 112 -49 169t-146 57q-80 0 -130 -55.5t-50 -145.5q0 -93 52.5 -148t143.5 -55q22 0 51 6t76 21v-332q-39 -8 -74 -12t-65 -4q-222 0 -366 148t-144 376z" />
<glyph unicode="r" horiz-adv-x="750" d="M94 0v1014h293v-152q48 79 124 115.5t194 36.5h38v-307h-14q-173 0 -249.5 -76.5t-76.5 -249.5v-381h-309z" />
<glyph unicode="s" horiz-adv-x="895" d="M63 0v287h383q29 0 43.5 9.5t14.5 29.5q0 12 -8 23t-20 17l-148 62q-126 53 -187 128t-61 177q0 131 95 206t263 75h346v-273h-342q-21 0 -35 -11t-14 -28q0 -11 8 -22.5t19 -15.5l141 -60q146 -61 211.5 -135.5t65.5 -179.5q0 -73 -32.5 -133t-92.5 -101 q-46 -29 -106.5 -42t-207.5 -13h-336z" />
<glyph unicode="t" horiz-adv-x="721" d="M88 420v842h318v-248h251v-297h-251v-320q0 -54 23.5 -76t82.5 -22h145v-299h-118q-232 0 -341.5 101.5t-109.5 318.5z" />
<glyph unicode="u" horiz-adv-x="1096" d="M82 500v514h317v-565q0 -71 41.5 -115.5t106.5 -44.5t106 44.5t41 115.5v565h318v-514q0 -237 -127.5 -377.5t-337.5 -140.5q-115 0 -213 49.5t-166 142.5q-45 63 -65.5 139t-20.5 187z" />
<glyph unicode="v" horiz-adv-x="977" d="M-23 1014h328l135 -486q13 -45 24.5 -94t22.5 -110q9 44 21.5 94.5t28.5 109.5l133 486h327l-268 -836q-32 -99 -92 -147.5t-150 -48.5q-89 0 -148 48t-91 148z" />
<glyph unicode="w" horiz-adv-x="1638" d="M84 479v535h313v-584q0 -62 38 -101.5t95 -39.5q58 0 95 39.5t37 101.5v584h315v-584q0 -62 37 -101.5t94 -39.5q58 0 95.5 39.5t37.5 101.5v584h313v-535q0 -225 -120 -361t-314 -136q-88 0 -165.5 33.5t-135.5 97.5q-60 -63 -135 -97t-154 -34q-202 0 -324 134.5 t-122 362.5z" />
<glyph unicode="x" horiz-adv-x="915" d="M18 0v309h29q114 0 181 53.5t67 143.5t-67 144.5t-181 54.5h-29v309h9q146 0 247.5 -42t182.5 -134q73 90 178 133t252 43h8v-309h-27q-113 0 -180 -54.5t-67 -144.5t67 -143.5t180 -53.5h27v-309h-8q-144 0 -252 43.5t-178 130.5q-79 -89 -183.5 -131.5t-246.5 -42.5h-9 z" />
<glyph unicode="y" horiz-adv-x="1096" d="M82 489v525h317v-576q0 -70 41.5 -114.5t106.5 -44.5t106 44.5t41 114.5v576h318v-525q0 -190 -74 -308t-233 -183v-434h-318v434q-160 68 -232.5 184.5t-72.5 306.5z" />
<glyph unicode="z" horiz-adv-x="924" d="M31 170q0 42 19.5 82t66.5 92l340 379h-367v291h539q129 0 193.5 -45t64.5 -135q0 -44 -20.5 -88t-59.5 -87l-324 -358h402v-301h-635q-106 0 -162.5 44t-56.5 126z" />
<glyph unicode="{" horiz-adv-x="1024" d="M152 410v241q6 0 18 -1t18 -1q118 0 168 55.5t50 188.5v254q0 136 24 193.5t82 89.5q48 25 120.5 37t180.5 12q12 0 38.5 -1t41.5 -1v-242q-7 0 -21 1t-20 1q-98 0 -132 -35.5t-34 -146.5v-240q0 -140 -46 -200t-165 -85q120 -24 165.5 -82.5t45.5 -199.5v-242 q0 -110 33.5 -145t130.5 -35q7 0 21.5 1t21.5 1v-242q-15 0 -42 -1t-40 -1q-108 0 -179.5 12t-119.5 37q-59 32 -82.5 88.5t-23.5 192.5v256q0 133 -49.5 187.5t-168.5 54.5q-4 0 -17 -1t-19 -1z" />
<glyph unicode="|" horiz-adv-x="1024" d="M393 -483v2048h240v-2048h-240z" />
<glyph unicode="}" horiz-adv-x="1024" d="M133 -172q9 0 23 -1t20 -1q97 0 130.5 34.5t33.5 145.5v242q0 140 46 199t165 83q-120 25 -165.5 84t-45.5 201v240q0 111 -33.5 146.5t-126.5 35.5q-7 0 -22.5 -1t-24.5 -1v242q15 0 41.5 1t38.5 1q108 0 180 -12t121 -37q58 -32 82.5 -89.5t24.5 -193.5v-254 q0 -134 49 -189t168 -55q6 0 18 1t18 1v-241q-6 0 -18 1t-18 1q-119 0 -168 -55t-49 -187v-256q0 -137 -24.5 -194.5t-82.5 -88.5q-45 -24 -113.5 -35.5t-177.5 -11.5q-14 0 -44 1t-46 1v242z" />
<glyph unicode="~" horiz-adv-x="1706" d="M178 401v254q112 73 207.5 108.5t179.5 35.5q63 0 126.5 -12t169.5 -46q16 -5 51 -17q159 -56 247 -56q84 0 173.5 36t197.5 115v-254q-101 -69 -194 -103t-183 -34q-45 0 -89 7.5t-83 21.5q-13 4 -38 13q-255 89 -382 89q-84 0 -175.5 -37.5t-207.5 -120.5z" />
<glyph unicode="&#xa0;" />
<glyph unicode="&#xa1;" horiz-adv-x="672" d="M131 1255q0 85 60 144t145 59t145 -59t60 -144q0 -86 -59 -145t-146 -59t-146 59t-59 145zM145 0l27 973h328l24 -973h-379z" />
<glyph unicode="&#xa2;" d="M221 705q0 189 91.5 304.5t252.5 129.5v264h193v-264h145v-254h-149q-139 0 -198.5 -41t-59.5 -133q0 -88 58.5 -126t199.5 -38h149v-260h-145v-287h-193v287q-157 13 -250.5 127t-93.5 291z" />
<glyph unicode="&#xa3;" d="M16 0v332h47q67 0 107.5 63t40.5 168v68h-121v303h127v49q0 219 118 347t320 128q60 0 114 -9.5t103 -29.5v-299q-39 9 -69.5 14t-46.5 5q-103 0 -152 -42.5t-49 -131.5v-31h156v-303h-152v-35q0 -111 -29.5 -171.5t-97.5 -92.5h103q141 0 203.5 58.5t62.5 191.5v47h325 v-82q0 -259 -127.5 -403t-355.5 -144h-627z" />
<glyph unicode="&#xa4;" horiz-adv-x="1241" d="M61 444l201 203q-36 54 -54 113t-18 125q0 67 18.5 126.5t53.5 110.5l-201 205l117 117l203 -201q54 37 113.5 55.5t126.5 18.5q69 0 130 -18.5t113 -55.5l201 201l119 -117l-201 -205q35 -53 52.5 -112t17.5 -125t-17.5 -125.5t-52.5 -112.5l201 -203l-119 -118 l-201 202q-52 -37 -111.5 -55t-129.5 -18t-128.5 17.5t-113.5 55.5l-203 -202zM362 885q0 -108 76 -184t185 -76q107 0 183.5 76t76.5 184q0 106 -76.5 183t-183.5 77t-184 -77t-77 -183z" />
<glyph unicode="&#xa5;" horiz-adv-x="1214" d="M12 594v166h303l-53 119h-250v165h174l-174 388h328l266 -660l268 660h328l-176 -388h176v-165h-252l-51 -119h303v-166h-381l-53 -117v-477h-322v467l-55 127h-379z" />
<glyph unicode="&#xa6;" horiz-adv-x="1024" d="M393 -350v758h240v-758h-240zM393 674v758h240v-758h-240z" />
<glyph unicode="&#xa7;" horiz-adv-x="1100" d="M131 705q0 57 26 102.5t81 81.5q-51 47 -76 102.5t-25 120.5q0 156 108 238t314 82h350v-306h-276q-89 0 -123.5 -16.5t-34.5 -56.5q0 -23 16 -44t46 -36l264 -133q101 -53 152 -117.5t51 -140.5q0 -56 -28 -102.5t-85 -86.5q57 -44 86 -99t29 -122q0 -154 -119 -238 t-338 -84h-395v320h340q106 0 146 15.5t40 52.5q0 22 -15 39t-57 36l-280 129q-95 44 -146 112t-51 151zM408 694q0 -24 21 -44.5t73 -45.5l67 -33q32 -14 56 -22t39 -8q25 0 40 13.5t15 37.5q0 23 -20.5 42t-75.5 46l-68 33q-38 18 -60 25t-36 7q-24 0 -37.5 -13.5 t-13.5 -37.5z" />
<glyph unicode="&#xa8;" horiz-adv-x="1024" d="M207 1311q0 51 39.5 90t91.5 39q54 0 91.5 -38t37.5 -91q0 -58 -36 -94.5t-93 -36.5q-55 0 -93 37.5t-38 93.5zM557 1311q0 51 39.5 90t91.5 39q54 0 91.5 -38t37.5 -91q0 -58 -36 -94.5t-93 -36.5q-55 0 -93 37.5t-38 93.5z" />
<glyph unicode="&#xa9;" horiz-adv-x="1706" d="M106 737q0 148 57.5 285t164.5 246q105 106 238 161.5t286 55.5q154 0 289.5 -56t242.5 -163q106 -106 160.5 -240.5t54.5 -288.5q0 -153 -54 -287t-159 -237q-109 -108 -247 -165.5t-287 -57.5q-148 0 -283.5 57t-242.5 164t-163.5 241.5t-56.5 284.5zM242 737 q0 -119 47 -230.5t135 -199.5q87 -87 198 -133.5t232 -46.5t234 47t202 135q86 84 130 193t44 235q0 125 -45 235.5t-131 196.5q-88 89 -198.5 135t-235.5 46q-126 0 -235 -45.5t-195 -133.5q-88 -89 -135 -201t-47 -233zM446 731q0 207 111 329t299 122q157 0 257 -80 t108 -211h-213q-7 67 -47.5 104t-108.5 37q-83 0 -129.5 -77t-46.5 -216q0 -140 47.5 -212t138.5 -72q67 0 106.5 40.5t45.5 114.5h215q-6 -143 -107.5 -230t-263.5 -87q-190 0 -301 117.5t-111 320.5z" />
<glyph unicode="&#xaa;" horiz-adv-x="862" d="M37 1079q0 160 108.5 264.5t274.5 104.5q114 0 206.5 -55.5t139.5 -151.5q19 -36 27 -80t8 -141v-297h-238v340q0 79 -37 118.5t-110 39.5q-60 0 -97.5 -39.5t-37.5 -102.5q0 -65 39.5 -103t107.5 -38q23 0 88 16l8 2v-231q-35 -6 -60 -9t-44 -3q-167 0 -275 103.5 t-108 262.5z" />
<glyph unicode="&#xab;" horiz-adv-x="1110" d="M117 508l256 321h231l-256 -321l256 -324h-231zM524 508l256 321h232l-256 -321l256 -324h-232z" />
<glyph unicode="&#xac;" horiz-adv-x="1706" d="M254 639v227h1198v-501h-229v274h-969z" />
<glyph unicode="&#xad;" horiz-adv-x="678" d="M70 379v264h538v-264h-538z" />
<glyph unicode="&#xae;" horiz-adv-x="1706" d="M106 737q0 151 59 290t169 247q105 104 237 157.5t281 53.5q156 0 294 -57.5t245 -167.5q101 -104 154.5 -238t53.5 -285q0 -155 -56.5 -291t-164.5 -239q-109 -105 -245 -161t-281 -56q-151 0 -287 58t-243 169q-105 108 -160.5 241.5t-55.5 278.5zM244 737 q0 -121 44 -229t130 -195q87 -90 199 -138t235 -48q121 0 232.5 45.5t199.5 130.5t134 196.5t46 237.5q0 124 -44 233.5t-128 194.5q-89 91 -200.5 138t-237.5 47q-124 0 -232 -44t-194 -128q-90 -90 -137 -203t-47 -238zM537 344v819h329q174 0 264.5 -60t90.5 -177 q0 -81 -46 -139t-128 -82l182 -361h-248l-154 326h-65v-326h-225zM762 803h80q74 0 110.5 26.5t36.5 79.5q0 59 -38 86t-122 27h-67v-219z" />
<glyph unicode="&#xaf;" horiz-adv-x="1024" d="M225 1231v155h574v-155h-574z" />
<glyph unicode="&#xb0;" horiz-adv-x="674" d="M27 1155q0 131 90.5 221t220.5 90q129 0 220 -91t91 -220q0 -128 -91.5 -219.5t-221.5 -91.5q-129 0 -219 90.5t-90 220.5zM172 1157q0 -70 48 -118t118 -48q68 0 116 49t48 117t-48 116t-116 48q-69 0 -117.5 -48t-48.5 -116z" />
<glyph unicode="&#xb1;" horiz-adv-x="1706" d="M254 -18v231h1198v-231h-1198zM254 690v232h481v319h238v-319h479v-232h-479v-319h-238v319h-481z" />
<glyph unicode="&#xb2;" horiz-adv-x="764" d="M59 686q0 35 19 70t59 73l285 277q19 19 29 38.5t10 37.5q0 33 -25.5 54t-64.5 21q-36 0 -61 -22t-25 -55q0 -23 13 -43t40 -39l-145 -142q-66 46 -96.5 99t-30.5 121q0 117 88.5 194.5t224.5 77.5q134 0 220.5 -75t86.5 -189q0 -126 -169 -275l-7 -6l-150 -131h342v-199 h-503q-70 0 -105 28.5t-35 84.5z" />
<glyph unicode="&#xb3;" horiz-adv-x="764" d="M66 573v199h280q66 0 100.5 22t34.5 64q0 38 -32.5 61t-88.5 23h-159v121l211 178h-330v191h369q100 0 156.5 -36.5t56.5 -101.5q0 -28 -15.5 -58t-42.5 -52l-123 -103q105 -15 162 -76.5t57 -158.5q0 -125 -84 -199t-227 -74h-325z" />
<glyph unicode="&#xb4;" horiz-adv-x="1024" d="M350 1126l197 371h258l-313 -371h-142z" />
<glyph unicode="&#xb5;" horiz-adv-x="1315" d="M-45 -428l238 1518h358l-80 -529q-6 -41 -9 -77.5t-3 -65.5q0 -85 35.5 -127.5t107.5 -42.5q88 0 138.5 68.5t74.5 220.5l88 553h357l-175 -1090h-321l18 125q-40 -75 -89.5 -108t-119.5 -33q-59 0 -106.5 31t-77.5 89l-82 -532h-352z" />
<glyph unicode="&#xb6;" horiz-adv-x="1024" d="M29 1130q0 158 106 253.5t283 95.5h579v-123h-106v-1356h-176v1356h-150v-1356h-174v784q-164 6 -263 101t-99 245z" />
<glyph unicode="&#xb7;" horiz-adv-x="578" d="M84 733q0 87 59 146t146 59t146 -59t59 -146q0 -84 -60 -143.5t-145 -59.5t-145 59.5t-60 143.5z" />
<glyph unicode="&#xb8;" horiz-adv-x="1024" d="M283 -311q80 -22 145 -32.5t111 -10.5q51 0 75.5 18.5t24.5 56.5t-26.5 53t-94.5 15q-29 0 -44.5 -0.5t-28.5 -1.5l69 322h100l-43 -199h9q115 0 174 -48.5t59 -144.5q0 -100 -65.5 -149t-198.5 -49q-51 0 -119.5 11t-146.5 32v127z" />
<glyph unicode="&#xb9;" horiz-adv-x="764" d="M186 1239v193h367v-859h-223v666h-144z" />
<glyph unicode="&#xba;" horiz-adv-x="846" d="M39 1079q0 75 28.5 140.5t84.5 119.5q56 53 125 81t145 28q78 0 148 -28t124 -81q55 -51 84 -118t29 -142t-28.5 -141.5t-84.5 -120.5q-53 -52 -123 -79t-149 -27q-75 0 -144.5 27t-125.5 79q-56 54 -84.5 120.5t-28.5 141.5zM285 1079q0 -60 40 -101.5t97 -41.5 q58 0 99.5 41.5t41.5 101.5q0 61 -41.5 103.5t-99.5 42.5q-57 0 -97 -42.5t-40 -103.5z" />
<glyph unicode="&#xbb;" horiz-adv-x="1110" d="M98 184l256 324l-256 321h230l256 -321l-256 -324h-230zM506 184l256 324l-256 321h229l256 -321l-256 -324h-229z" />
<glyph unicode="&#xbc;" horiz-adv-x="1800" d="M178 1249v181h350v-801h-213v620h-137zM387 0l825 1432h199l-823 -1432h-201zM1104 291q0 24 7.5 49t23.5 49l258 412h213l-299 -463h170v184l192 299v-479h100v-180h-100v-162h-192v162h-203q-79 0 -124.5 34.5t-45.5 94.5z" />
<glyph unicode="&#xbd;" horiz-adv-x="1800" d="M178 1249v181h350v-801h-213v620h-137zM387 0l825 1432h199l-823 -1432h-201zM1128 106q0 32 18.5 65t55.5 69l273 258q17 18 26.5 35.5t9.5 33.5q0 32 -24 52t-62 20q-34 0 -58 -20.5t-24 -51.5q0 -22 13 -41.5t39 -36.5l-142 -131q-62 42 -91 91.5t-29 111.5 q0 111 84.5 182.5t216.5 71.5q127 0 209.5 -69.5t82.5 -176.5q0 -118 -161 -254l-7 -6l-143 -123h328v-186h-481q-67 0 -100.5 26.5t-33.5 79.5z" />
<glyph unicode="&#xbe;" horiz-adv-x="1800" d="M63 629v186h267q62 0 95.5 20t33.5 58q0 36 -31.5 58t-83.5 22h-154v112l203 168h-315v177h352q96 0 149.5 -34t53.5 -93q0 -30 -14.5 -57t-40.5 -48l-117 -94q100 -15 154.5 -72.5t54.5 -148.5q0 -116 -80.5 -185t-214.5 -69h-312zM387 0l825 1432h199l-823 -1432h-201z M1104 291q0 24 7.5 49t23.5 49l258 412h213l-299 -463h170v184l192 299v-479h100v-180h-100v-162h-192v162h-203q-79 0 -124.5 34.5t-45.5 94.5z" />
<glyph unicode="&#xbf;" horiz-adv-x="1063" d="M68 442q0 162 86 267.5t243 136.5v127h328v-410h-84q-112 0 -165.5 -34t-53.5 -105q0 -57 37.5 -93t97.5 -36t95.5 35.5t45.5 105.5l324 -84q-46 -182 -169.5 -279.5t-309.5 -97.5q-211 0 -343 131t-132 336zM350 1251q0 85 60.5 145t144.5 60t143.5 -60.5t59.5 -144.5 q0 -86 -58.5 -145t-144.5 -59t-145.5 59.5t-59.5 144.5z" />
<glyph unicode="&#xc0;" horiz-adv-x="1280" d="M94 0v846q0 279 149 444.5t396 165.5t397 -166t150 -444v-846h-355v530h-319v336h319v17q0 103 -52 164t-140 61q-93 0 -141.5 -62.5t-48.5 -181.5v-864h-355zM348 1935h258l197 -371h-142z" />
<glyph unicode="&#xc1;" horiz-adv-x="1280" d="M94 0v846q0 279 149 444.5t396 165.5t397 -166t150 -444v-846h-355v530h-319v336h319v17q0 103 -52 164t-140 61q-93 0 -141.5 -62.5t-48.5 -181.5v-864h-355zM479 1564l197 371h258l-313 -371h-142z" />
<glyph unicode="&#xc2;" horiz-adv-x="1280" d="M94 0v846q0 279 149 444.5t396 165.5t397 -166t150 -444v-846h-355v530h-319v336h319v17q0 103 -52 164t-140 61q-93 0 -141.5 -62.5t-48.5 -181.5v-864h-355zM326 1564l196 371h238l196 -371h-141l-174 220l-176 -220h-139z" />
<glyph unicode="&#xc3;" horiz-adv-x="1280" d="M94 0v846q0 279 149 444.5t396 165.5t397 -166t150 -444v-846h-355v530h-319v336h319v17q0 103 -52 164t-140 61q-93 0 -141.5 -62.5t-48.5 -181.5v-864h-355zM324 1614q24 121 74 178t130 57q20 0 41.5 -3.5t44.5 -10.5l93 -25q12 -4 25.5 -6t29.5 -2q33 0 54 21t32 63 h110q-26 -124 -77 -183t-131 -59q-21 0 -39 2.5t-36 8.5l-87 24q-29 8 -41.5 10t-24.5 2q-34 0 -55 -18.5t-33 -58.5h-110z" />
<glyph unicode="&#xc4;" horiz-adv-x="1280" d="M94 0v846q0 279 149 444.5t396 165.5t397 -166t150 -444v-846h-355v530h-319v336h319v17q0 103 -52 164t-140 61q-93 0 -141.5 -62.5t-48.5 -181.5v-864h-355zM336 1749q0 51 39.5 90t91.5 39q54 0 91.5 -38t37.5 -91q0 -58 -36 -94.5t-93 -36.5q-55 0 -93 37.5t-38 93.5 zM686 1749q0 51 39.5 90t91.5 39q54 0 91.5 -38t37.5 -91q0 -58 -36 -94.5t-93 -36.5q-55 0 -93 37.5t-38 93.5z" />
<glyph unicode="&#xc5;" horiz-adv-x="1280" d="M94 0v846q0 279 149 444.5t396 165.5t397 -166t150 -444v-846h-355v530h-319v336h319v17q0 103 -52 164t-140 61q-93 0 -141.5 -63t-48.5 -183v-862h-355zM385 1710q0 108 73.5 182t180.5 74q106 0 181 -75t75 -181t-73.5 -178t-182.5 -72q-108 0 -181 71.5t-73 178.5z M524 1710q0 -50 33.5 -83.5t83.5 -33.5q49 0 83 34t34 83q0 48 -34.5 82.5t-82.5 34.5q-49 0 -83 -34t-34 -83z" />
<glyph unicode="&#xc6;" horiz-adv-x="1780" d="M94 0v846q0 277 147.5 442.5t391.5 165.5q123 0 227 -49.5t187 -147.5q105 89 257 132t359 43h29l-1 -326q-14 1 -30 1.5t-49 0.5q-191 0 -302.5 -59t-156.5 -183h539v-293h-541q31 -123 150 -185t323 -62q28 0 42 0.5t26 0.5v-327h-25q-171 0 -292 23t-214 73v-96h-330 v573h-319v293h319v17q0 104 -52 166.5t-140 62.5q-92 0 -141 -64t-49 -184v-864h-355z" />
<glyph unicode="&#xc7;" horiz-adv-x="1040" d="M57 717q0 185 85 339t243 255q96 61 236 91t327 30h37v-336q-14 1 -30.5 1.5t-49.5 0.5q-234 0 -358.5 -98.5t-124.5 -282.5q0 -186 124.5 -284.5t358.5 -98.5q33 0 50 0.5t30 0.5v-335h-37q-187 0 -327 30t-236 91q-157 101 -242.5 256t-85.5 340zM375 -311 q80 -22 145 -32.5t111 -10.5q51 0 75.5 18.5t24.5 56.5t-26.5 53t-94.5 15q-29 0 -44.5 -0.5t-28.5 -1.5l69 322h100l-43 -199h9q115 0 174 -48.5t59 -144.5q0 -100 -65.5 -149t-198.5 -49q-51 0 -119.5 11t-146.5 32v127z" />
<glyph unicode="&#xc8;" horiz-adv-x="1071" d="M57 717q0 185 85 339t243 255q96 61 236 91t327 30h37v-326q-14 1 -29.5 1.5t-44.5 0.5q-188 0 -299 -55t-159 -170h532v-320h-539q36 -118 154 -177.5t318 -59.5q27 0 41.5 0.5t25.5 0.5v-327h-37q-187 0 -327 30t-236 91q-157 101 -242.5 256t-85.5 340zM379 1935h258 l197 -371h-142z" />
<glyph unicode="&#xc9;" horiz-adv-x="1071" d="M57 717q0 185 85 339t243 255q96 61 236 91t327 30h37v-326q-14 1 -29.5 1.5t-44.5 0.5q-188 0 -299 -55t-159 -170h532v-320h-539q36 -118 154 -177.5t318 -59.5q27 0 41.5 0.5t25.5 0.5v-327h-37q-187 0 -327 30t-236 91q-157 101 -242.5 256t-85.5 340zM510 1564 l197 371h258l-313 -371h-142z" />
<glyph unicode="&#xca;" horiz-adv-x="1071" d="M57 717q0 185 85 339t243 255q96 61 236 91t327 30h37v-326q-14 1 -29.5 1.5t-44.5 0.5q-188 0 -299 -55t-159 -170h532v-320h-539q36 -118 154 -177.5t318 -59.5q27 0 41.5 0.5t25.5 0.5v-327h-37q-187 0 -327 30t-236 91q-157 101 -242.5 256t-85.5 340zM357 1564 l196 371h238l196 -371h-141l-174 220l-176 -220h-139z" />
<glyph unicode="&#xcb;" horiz-adv-x="1071" d="M57 717q0 185 85 339t243 255q96 61 236 91t327 30h37v-326q-14 1 -29.5 1.5t-44.5 0.5q-188 0 -299 -55t-159 -170h532v-320h-539q36 -118 154 -177.5t318 -59.5q27 0 41.5 0.5t25.5 0.5v-327h-37q-187 0 -327 30t-236 91q-157 101 -242.5 256t-85.5 340zM367 1749 q0 51 39.5 90t91.5 39q54 0 91.5 -38t37.5 -91q0 -58 -36 -94.5t-93 -36.5q-55 0 -93 37.5t-38 93.5zM717 1749q0 51 39.5 90t91.5 39q54 0 91.5 -38t37.5 -91q0 -58 -36 -94.5t-93 -36.5q-55 0 -93 37.5t-38 93.5z" />
<glyph unicode="&#xcc;" horiz-adv-x="578" d="M-4 1935h258l197 -371h-142zM111 0v1432h356v-1432h-356z" />
<glyph unicode="&#xcd;" horiz-adv-x="578" d="M111 0v1432h356v-1432h-356zM127 1564l197 371h258l-313 -371h-142z" />
<glyph unicode="&#xce;" horiz-adv-x="578" d="M-26 1564l196 371h238l196 -371h-141l-174 220l-176 -220h-139zM111 0v1432h356v-1432h-356z" />
<glyph unicode="&#xcf;" horiz-adv-x="578" d="M-16 1749q0 51 39.5 90t91.5 39q54 0 91.5 -38t37.5 -91q0 -58 -36 -94.5t-93 -36.5q-55 0 -93 37.5t-38 93.5zM111 0v1432h356v-1432h-356zM334 1749q0 51 39.5 90t91.5 39q54 0 91.5 -38t37.5 -91q0 -58 -36 -94.5t-93 -36.5q-55 0 -93 37.5t-38 93.5z" />
<glyph unicode="&#xd0;" horiz-adv-x="1325" d="M10 641v213h107v578h260q210 0 331 -25.5t214 -83.5q166 -104 256 -261.5t90 -344.5q0 -178 -82.5 -334t-231.5 -260q-80 -55 -186 -86t-240 -37v344q167 6 271 110.5t104 264.5q0 163 -111 269t-286 106q-6 0 -17.5 -1t-17.5 -1v-238h162v-213h-162v-641h-354v641h-107z " />
<glyph unicode="&#xd1;" horiz-adv-x="1352" d="M104 0v1212q0 115 59.5 182.5t158.5 67.5q82 0 141 -46.5t131 -178.5l188 -340q59 -107 92.5 -180t53.5 -135q-12 132 -18.5 239t-6.5 164v447h344v-1260q0 -87 -49.5 -141t-130.5 -54q-69 0 -117.5 36t-105.5 139l-279 503q-9 17 -27 50q-93 167 -128 270 q20 -143 29.5 -260.5t9.5 -220.5v-494h-345zM359 1614q24 121 74 178t130 57q20 0 41.5 -3.5t44.5 -10.5l93 -25q12 -4 25.5 -6t29.5 -2q33 0 54 21t32 63h110q-26 -124 -77 -183t-131 -59q-21 0 -39 2.5t-36 8.5l-87 24q-29 8 -41.5 10t-24.5 2q-34 0 -55 -18.5t-33 -58.5 h-110z" />
<glyph unicode="&#xd2;" horiz-adv-x="1583" d="M57 717q0 149 55.5 282.5t161.5 241.5q105 105 238 160t281 55t282 -56t238 -161q103 -104 158 -238t55 -284q0 -151 -55 -286t-158 -238q-104 -106 -238 -162t-282 -56q-147 0 -280 56t-239 162q-106 108 -161.5 241t-55.5 283zM422 719q0 -161 109 -274t262 -113 t260.5 112.5t107.5 274.5t-107 273.5t-261 111.5q-155 0 -263 -112t-108 -273zM500 1935h258l197 -371h-142z" />
<glyph unicode="&#xd3;" horiz-adv-x="1583" d="M57 717q0 149 55.5 282.5t161.5 241.5q105 105 238 160t281 55t282 -56t238 -161q103 -104 158 -238t55 -284q0 -151 -55 -286t-158 -238q-104 -106 -238 -162t-282 -56q-147 0 -280 56t-239 162q-106 108 -161.5 241t-55.5 283zM422 719q0 -161 109 -274t262 -113 t260.5 112.5t107.5 274.5t-107 273.5t-261 111.5q-155 0 -263 -112t-108 -273zM631 1564l197 371h258l-313 -371h-142z" />
<glyph unicode="&#xd4;" horiz-adv-x="1583" d="M57 717q0 149 55.5 282.5t161.5 241.5q105 105 238 160t281 55t282 -56t238 -161q103 -104 158 -238t55 -284q0 -151 -55 -286t-158 -238q-104 -106 -238 -162t-282 -56q-147 0 -280 56t-239 162q-106 108 -161.5 241t-55.5 283zM422 719q0 -161 109 -274t262 -113 t260.5 112.5t107.5 274.5t-107 273.5t-261 111.5q-155 0 -263 -112t-108 -273zM478 1564l196 371h238l196 -371h-141l-174 220l-176 -220h-139z" />
<glyph unicode="&#xd5;" horiz-adv-x="1583" d="M57 717q0 149 55.5 282.5t161.5 241.5q105 105 238 160t281 55t282 -56t238 -161q103 -104 158 -238t55 -284q0 -151 -55 -286t-158 -238q-104 -106 -238 -162t-282 -56q-147 0 -280 56t-239 162q-106 108 -161.5 241t-55.5 283zM422 719q0 -161 109 -274t262 -113 t260.5 112.5t107.5 274.5t-107 273.5t-261 111.5q-155 0 -263 -112t-108 -273zM476 1614q24 121 74 178t130 57q20 0 41.5 -3.5t44.5 -10.5l93 -25q12 -4 25.5 -6t29.5 -2q33 0 54 21t32 63h110q-26 -124 -77 -183t-131 -59q-21 0 -39 2.5t-36 8.5l-87 24q-29 8 -41.5 10 t-24.5 2q-34 0 -55 -18.5t-33 -58.5h-110z" />
<glyph unicode="&#xd6;" horiz-adv-x="1583" d="M57 717q0 149 55.5 282.5t161.5 241.5q105 105 238 160t281 55t282 -56t238 -161q103 -104 158 -238t55 -284q0 -151 -55 -286t-158 -238q-104 -106 -238 -162t-282 -56q-147 0 -280 56t-239 162q-106 108 -161.5 241t-55.5 283zM422 719q0 -161 109 -274t262 -113 t260.5 112.5t107.5 274.5t-107 273.5t-261 111.5q-155 0 -263 -112t-108 -273zM488 1749q0 51 39.5 90t91.5 39q54 0 91.5 -38t37.5 -91q0 -58 -36 -94.5t-93 -36.5q-55 0 -93 37.5t-38 93.5zM838 1749q0 51 39.5 90t91.5 39q54 0 91.5 -38t37.5 -91q0 -58 -36 -94.5 t-93 -36.5q-55 0 -93 37.5t-38 93.5z" />
<glyph unicode="&#xd7;" horiz-adv-x="1706" d="M268 170l441 440l-441 443l162 161l440 -440l441 440l162 -161l-441 -443l441 -440l-162 -162l-441 441l-440 -441z" />
<glyph unicode="&#xd8;" horiz-adv-x="1583" d="M55 39l174 201q-86 104 -129 222.5t-43 252.5q0 155 57.5 293t166.5 241q103 101 234 154t276 53q107 0 208.5 -30.5t196.5 -92.5l166 189l151 -133l-165 -187q89 -109 133.5 -229t44.5 -254q0 -145 -51 -276.5t-148 -235.5q-104 -112 -240 -172t-286 -60 q-119 0 -225.5 33t-196.5 96l-172 -198zM414 729q0 -64 14.5 -118.5t44.5 -104.5l496 561q-42 23 -86.5 34t-91.5 11q-154 0 -265.5 -113t-111.5 -270zM608 375q45 -26 91.5 -38.5t95.5 -12.5q156 0 265 113.5t109 279.5q0 63 -15.5 117.5t-47.5 103.5z" />
<glyph unicode="&#xd9;" horiz-adv-x="1280" d="M94 586v846h355v-867q0 -116 49 -177.5t141 -61.5q94 0 143 61.5t49 177.5v867h353v-846q0 -279 -149 -445t-396 -166t-396 166t-149 445zM348 1935h258l197 -371h-142z" />
<glyph unicode="&#xda;" horiz-adv-x="1280" d="M94 586v846h355v-867q0 -116 49 -177.5t141 -61.5q94 0 143 61.5t49 177.5v867h353v-846q0 -279 -149 -445t-396 -166t-396 166t-149 445zM479 1564l197 371h258l-313 -371h-142z" />
<glyph unicode="&#xdb;" horiz-adv-x="1280" d="M94 586v846h355v-867q0 -116 49 -177.5t141 -61.5q94 0 143 61.5t49 177.5v867h353v-846q0 -279 -149 -445t-396 -166t-396 166t-149 445zM326 1564l196 371h238l196 -371h-141l-174 220l-176 -220h-139z" />
<glyph unicode="&#xdc;" horiz-adv-x="1280" d="M94 586v846h355v-867q0 -116 49 -177.5t141 -61.5q94 0 143 61.5t49 177.5v867h353v-846q0 -279 -149 -445t-396 -166t-396 166t-149 445zM336 1749q0 51 39.5 90t91.5 39q54 0 91.5 -38t37.5 -91q0 -58 -36 -94.5t-93 -36.5q-55 0 -93 37.5t-38 93.5zM686 1749 q0 51 39.5 90t91.5 39q54 0 91.5 -38t37.5 -91q0 -58 -36 -94.5t-93 -36.5q-55 0 -93 37.5t-38 93.5z" />
<glyph unicode="&#xdd;" horiz-adv-x="1165" d="M86 1022v410h352v-449q0 -88 38 -135t108 -47q69 0 106 47t37 135v449h354v-410q0 -201 -80 -332t-241 -194v-496h-354v498q-162 64 -241 193.5t-79 330.5zM422 1564l197 371h258l-313 -371h-142z" />
<glyph unicode="&#xde;" horiz-adv-x="1176" d="M94 0v1458h357v-219q42 13 84 20t81 7q215 0 363.5 -146t148.5 -356q0 -226 -157.5 -363t-419.5 -137h-37v342h55q91 0 143 43.5t52 118.5q0 68 -43 111t-111 43q-74 0 -116.5 -51t-42.5 -142v-729h-357z" />
<glyph unicode="&#xdf;" horiz-adv-x="1217" d="M-12 717v297h121v22q0 188 114.5 302t302.5 114q183 0 305.5 -99t122.5 -239q0 -65 -30 -120t-93 -105q169 -98 252.5 -214t83.5 -253q0 -202 -131 -312t-374 -110h-160v299h182q74 0 116 33.5t42 91.5q0 48 -28 92t-130 133q-19 17 -54 46q-112 92 -112 130 q0 26 58.5 102t58.5 134q0 51 -27 80.5t-73 29.5q-55 0 -83 -49t-28 -143v-979h-315v717h-121z" />
<glyph unicode="&#xe0;" horiz-adv-x="1149" d="M49 510q0 228 144 376t366 148q153 0 277 -78.5t186 -214.5q24 -52 34.5 -115.5t10.5 -201.5v-424h-317v485q0 112 -49 169t-146 57q-80 0 -130 -55.5t-50 -145.5q0 -93 52.5 -148t143.5 -55q22 0 51 6t76 21v-332q-39 -8 -74 -12t-65 -4q-222 0 -366 148t-144 376z M282 1497h258l197 -371h-142z" />
<glyph unicode="&#xe1;" horiz-adv-x="1149" d="M49 510q0 228 144 376t366 148q153 0 277 -78.5t186 -214.5q24 -52 34.5 -115.5t10.5 -201.5v-424h-317v485q0 112 -49 169t-146 57q-80 0 -130 -55.5t-50 -145.5q0 -93 52.5 -148t143.5 -55q22 0 51 6t76 21v-332q-39 -8 -74 -12t-65 -4q-222 0 -366 148t-144 376z M413 1126l197 371h258l-313 -371h-142z" />
<glyph unicode="&#xe2;" horiz-adv-x="1149" d="M49 510q0 228 144 376t366 148q153 0 277 -78.5t186 -214.5q24 -52 34.5 -115.5t10.5 -201.5v-424h-317v485q0 112 -49 169t-146 57q-80 0 -130 -55.5t-50 -145.5q0 -93 52.5 -148t143.5 -55q22 0 51 6t76 21v-332q-39 -8 -74 -12t-65 -4q-222 0 -366 148t-144 376z M260 1126l196 371h238l196 -371h-141l-174 220l-176 -220h-139z" />
<glyph unicode="&#xe3;" horiz-adv-x="1149" d="M49 510q0 228 144 376t366 148q153 0 277 -78.5t186 -214.5q24 -52 34.5 -115.5t10.5 -201.5v-424h-317v485q0 112 -49 169t-146 57q-80 0 -130 -55.5t-50 -145.5q0 -93 52.5 -148t143.5 -55q22 0 51 6t76 21v-332q-39 -8 -74 -12t-65 -4q-222 0 -366 148t-144 376z M258 1176q24 121 74 178t130 57q20 0 41.5 -3.5t44.5 -10.5l93 -25q12 -4 25.5 -6t29.5 -2q33 0 54 21t32 63h110q-26 -124 -77 -183t-131 -59q-21 0 -39 2.5t-36 8.5l-87 24q-29 8 -41.5 10t-24.5 2q-34 0 -55 -18.5t-33 -58.5h-110z" />
<glyph unicode="&#xe4;" horiz-adv-x="1149" d="M49 510q0 228 144 376t366 148q153 0 277 -78.5t186 -214.5q24 -52 34.5 -115.5t10.5 -201.5v-424h-317v485q0 112 -49 169t-146 57q-80 0 -130 -55.5t-50 -145.5q0 -93 52.5 -148t143.5 -55q22 0 51 6t76 21v-332q-39 -8 -74 -12t-65 -4q-222 0 -366 148t-144 376z M270 1311q0 51 39.5 90t91.5 39q54 0 91.5 -38t37.5 -91q0 -58 -36 -94.5t-93 -36.5q-55 0 -93 37.5t-38 93.5zM620 1311q0 51 39.5 90t91.5 39q54 0 91.5 -38t37.5 -91q0 -58 -36 -94.5t-93 -36.5q-55 0 -93 37.5t-38 93.5z" />
<glyph unicode="&#xe5;" horiz-adv-x="1149" d="M49 510q0 228 144 376t366 148q153 0 277 -78.5t186 -214.5q24 -52 34.5 -115.5t10.5 -201.5v-424h-317v485q0 112 -49 169t-146 57q-80 0 -130 -55.5t-50 -145.5q0 -93 52.5 -148t143.5 -55q22 0 51 6t76 21v-332q-39 -8 -74 -12t-65 -4q-222 0 -366 148t-144 376z M332 1366q0 111 77 188.5t189 77.5t189 -77.5t77 -188.5q0 -112 -77 -189t-189 -77t-189 77t-77 189zM477 1366q0 -53 34.5 -88t86.5 -35t87.5 36t35.5 87q0 50 -36 85.5t-87 35.5q-52 0 -86.5 -34.5t-34.5 -86.5z" />
<glyph unicode="&#xe6;" horiz-adv-x="1726" d="M20 287q0 157 163 267.5t438 135.5q-17 49 -58.5 73.5t-105.5 24.5q-62 0 -127.5 -16t-159.5 -55l-96 229q118 47 212 68.5t179 21.5q122 0 206 -37t150 -120q73 79 161 118t194 39q181 0 315.5 -107t194.5 -300l-541 -242l-90 205l280 129q-36 30 -72.5 44.5t-74.5 14.5 q-96 0 -165 -76.5t-69 -187.5q0 -106 66.5 -177t165.5 -71q78 0 153.5 45.5t133.5 126.5l223 -153q-100 -150 -229 -226.5t-283 -76.5q-117 0 -213 43.5t-176 132.5q-83 -93 -182 -134.5t-240 -41.5q-154 0 -253.5 85.5t-99.5 217.5zM328 322q0 -39 31 -64t81 -25 q95 0 154 61.5t59 160.5q0 16 -0.5 25t-1.5 15q-162 -27 -242.5 -70.5t-80.5 -102.5z" />
<glyph unicode="&#xe7;" horiz-adv-x="809" d="M51 508q0 228 162 367t432 139h119v-309h-139q-114 0 -181 -54.5t-67 -144.5t67 -143.5t181 -53.5h139v-309h-119q-270 0 -432 139.5t-162 368.5zM228 -311q80 -22 145 -32.5t111 -10.5q51 0 75.5 18.5t24.5 56.5t-26.5 53t-94.5 15q-29 0 -44.5 -0.5t-28.5 -1.5l69 322 h100l-43 -199h9q115 0 174 -48.5t59 -144.5q0 -100 -65.5 -149t-198.5 -49q-51 0 -119.5 11t-146.5 32v127z" />
<glyph unicode="&#xe8;" horiz-adv-x="1133" d="M51 508q0 107 38.5 202t113.5 171q72 73 164.5 112t195.5 39q154 0 277 -81.5t202 -237.5l-491 -334l-123 186l266 185q-26 17 -54 25.5t-58 8.5q-94 0 -160 -71.5t-66 -175.5q0 -106 65 -178t159 -72q88 0 163.5 53t128.5 154l242 -117q-80 -189 -224 -292t-327 -103 q-101 0 -194.5 39.5t-165.5 113.5q-75 76 -113.5 171t-38.5 202zM274 1497h258l197 -371h-142z" />
<glyph unicode="&#xe9;" horiz-adv-x="1133" d="M51 508q0 107 38.5 202t113.5 171q72 73 164.5 112t195.5 39q154 0 277 -81.5t202 -237.5l-491 -334l-123 186l266 185q-26 17 -54 25.5t-58 8.5q-94 0 -160 -71.5t-66 -175.5q0 -106 65 -178t159 -72q88 0 163.5 53t128.5 154l242 -117q-80 -189 -224 -292t-327 -103 q-101 0 -194.5 39.5t-165.5 113.5q-75 76 -113.5 171t-38.5 202zM405 1126l197 371h258l-313 -371h-142z" />
<glyph unicode="&#xea;" horiz-adv-x="1133" d="M51 508q0 107 38.5 202t113.5 171q72 73 164.5 112t195.5 39q154 0 277 -81.5t202 -237.5l-491 -334l-123 186l266 185q-26 17 -54 25.5t-58 8.5q-94 0 -160 -71.5t-66 -175.5q0 -106 65 -178t159 -72q88 0 163.5 53t128.5 154l242 -117q-80 -189 -224 -292t-327 -103 q-101 0 -194.5 39.5t-165.5 113.5q-75 76 -113.5 171t-38.5 202zM252 1126l196 371h238l196 -371h-141l-174 220l-176 -220h-139z" />
<glyph unicode="&#xeb;" horiz-adv-x="1133" d="M51 508q0 107 38.5 202t113.5 171q72 73 164.5 112t195.5 39q154 0 277 -81.5t202 -237.5l-491 -334l-123 186l266 185q-26 17 -54 25.5t-58 8.5q-94 0 -160 -71.5t-66 -175.5q0 -106 65 -178t159 -72q88 0 163.5 53t128.5 154l242 -117q-80 -189 -224 -292t-327 -103 q-101 0 -194.5 39.5t-165.5 113.5q-75 76 -113.5 171t-38.5 202zM262 1311q0 51 39.5 90t91.5 39q54 0 91.5 -38t37.5 -91q0 -58 -36 -94.5t-93 -36.5q-55 0 -93 37.5t-38 93.5zM612 1311q0 51 39.5 90t91.5 39q54 0 91.5 -38t37.5 -91q0 -58 -36 -94.5t-93 -36.5 q-55 0 -93 37.5t-38 93.5z" />
<glyph unicode="&#xec;" horiz-adv-x="512" d="M-37 1497h258l197 -371h-142zM94 0v1014h324v-1014h-324z" />
<glyph unicode="&#xed;" horiz-adv-x="512" d="M94 0v1014h324v-1014h-324zM94 1126l197 371h258l-313 -371h-142z" />
<glyph unicode="&#xee;" horiz-adv-x="512" d="M-59 1126l196 371h238l196 -371h-141l-174 220l-176 -220h-139zM94 0v1014h324v-1014h-324z" />
<glyph unicode="&#xef;" horiz-adv-x="512" d="M-49 1311q0 51 39.5 90t91.5 39q54 0 91.5 -38t37.5 -91q0 -58 -36 -94.5t-93 -36.5q-55 0 -93 37.5t-38 93.5zM94 0v1014h324v-1014h-324zM301 1311q0 51 39.5 90t91.5 39q54 0 91.5 -38t37.5 -91q0 -58 -36 -94.5t-93 -36.5q-55 0 -93 37.5t-38 93.5z" />
<glyph unicode="&#xf0;" horiz-adv-x="1096" d="M51 487q0 193 114 324.5t300 153.5l165 -278q-19 6 -36 9.5t-33 3.5q-84 0 -138 -61.5t-54 -157.5q0 -82 51 -134t133 -52q81 0 133.5 59t52.5 152q0 54 -22.5 115.5t-87.5 171.5l-185 307l-186 -68l-53 152l160 53l-111 193h307l66 -101l186 64l64 -148l-158 -53 l186 -281q70 -105 103.5 -205t33.5 -202q0 -75 -16.5 -143.5t-48.5 -127.5q-67 -120 -180.5 -188t-249.5 -68q-100 0 -189.5 38.5t-158.5 111.5q-72 75 -110 167t-38 193z" />
<glyph unicode="&#xf1;" horiz-adv-x="1096" d="M82 0v514q0 238 127.5 379t337.5 141q114 0 213.5 -50.5t167.5 -143.5q44 -62 64 -137t20 -189v-514h-318v565q0 71 -41 115.5t-106 44.5t-106.5 -44.5t-41.5 -115.5v-565h-317zM232 1176q24 121 74 178t130 57q20 0 41.5 -3.5t44.5 -10.5l93 -25q12 -4 25.5 -6t29.5 -2 q33 0 54 21t32 63h110q-26 -124 -77 -183t-131 -59q-21 0 -39 2.5t-36 8.5l-87 24q-29 8 -41.5 10t-24.5 2q-34 0 -55 -18.5t-33 -58.5h-110z" />
<glyph unicode="&#xf2;" horiz-adv-x="1128" d="M51 508q0 106 38.5 200.5t113.5 172.5q73 74 165.5 113.5t194.5 39.5q104 0 197.5 -39.5t165.5 -113.5q73 -75 111 -170.5t38 -202.5t-38 -202.5t-111 -170.5q-72 -74 -165.5 -113.5t-197.5 -39.5q-102 0 -194.5 39.5t-165.5 113.5q-75 78 -113.5 172.5t-38.5 200.5z M272 1497h258l197 -371h-142zM379 510q0 -86 54 -146.5t130 -60.5q77 0 132 60.5t55 146.5t-55 146.5t-132 60.5q-76 0 -130 -60.5t-54 -146.5z" />
<glyph unicode="&#xf3;" horiz-adv-x="1128" d="M51 508q0 106 38.5 200.5t113.5 172.5q73 74 165.5 113.5t194.5 39.5q104 0 197.5 -39.5t165.5 -113.5q73 -75 111 -170.5t38 -202.5t-38 -202.5t-111 -170.5q-72 -74 -165.5 -113.5t-197.5 -39.5q-102 0 -194.5 39.5t-165.5 113.5q-75 78 -113.5 172.5t-38.5 200.5z M379 510q0 -86 54 -146.5t130 -60.5q77 0 132 60.5t55 146.5t-55 146.5t-132 60.5q-76 0 -130 -60.5t-54 -146.5zM403 1126l197 371h258l-313 -371h-142z" />
<glyph unicode="&#xf4;" horiz-adv-x="1128" d="M51 508q0 106 38.5 200.5t113.5 172.5q73 74 165.5 113.5t194.5 39.5q104 0 197.5 -39.5t165.5 -113.5q73 -75 111 -170.5t38 -202.5t-38 -202.5t-111 -170.5q-72 -74 -165.5 -113.5t-197.5 -39.5q-102 0 -194.5 39.5t-165.5 113.5q-75 78 -113.5 172.5t-38.5 200.5z M250 1126l196 371h238l196 -371h-141l-174 220l-176 -220h-139zM379 510q0 -86 54 -146.5t130 -60.5q77 0 132 60.5t55 146.5t-55 146.5t-132 60.5q-76 0 -130 -60.5t-54 -146.5z" />
<glyph unicode="&#xf5;" horiz-adv-x="1128" d="M51 508q0 106 38.5 200.5t113.5 172.5q73 74 165.5 113.5t194.5 39.5q104 0 197.5 -39.5t165.5 -113.5q73 -75 111 -170.5t38 -202.5t-38 -202.5t-111 -170.5q-72 -74 -165.5 -113.5t-197.5 -39.5q-102 0 -194.5 39.5t-165.5 113.5q-75 78 -113.5 172.5t-38.5 200.5z M248 1176q24 121 74 178t130 57q20 0 41.5 -3.5t44.5 -10.5l93 -25q12 -4 25.5 -6t29.5 -2q33 0 54 21t32 63h110q-26 -124 -77 -183t-131 -59q-21 0 -39 2.5t-36 8.5l-87 24q-29 8 -41.5 10t-24.5 2q-34 0 -55 -18.5t-33 -58.5h-110zM379 510q0 -86 54 -146.5t130 -60.5 q77 0 132 60.5t55 146.5t-55 146.5t-132 60.5q-76 0 -130 -60.5t-54 -146.5z" />
<glyph unicode="&#xf6;" horiz-adv-x="1128" d="M51 508q0 106 38.5 200.5t113.5 172.5q73 74 165.5 113.5t194.5 39.5q104 0 197.5 -39.5t165.5 -113.5q73 -75 111 -170.5t38 -202.5t-38 -202.5t-111 -170.5q-72 -74 -165.5 -113.5t-197.5 -39.5q-102 0 -194.5 39.5t-165.5 113.5q-75 78 -113.5 172.5t-38.5 200.5z M260 1311q0 51 39.5 90t91.5 39q54 0 91.5 -38t37.5 -91q0 -58 -36 -94.5t-93 -36.5q-55 0 -93 37.5t-38 93.5zM379 510q0 -86 54 -146.5t130 -60.5q77 0 132 60.5t55 146.5t-55 146.5t-132 60.5q-76 0 -130 -60.5t-54 -146.5zM610 1311q0 51 39.5 90t91.5 39q54 0 91.5 -38 t37.5 -91q0 -58 -36 -94.5t-93 -36.5q-55 0 -93 37.5t-38 93.5z" />
<glyph unicode="&#xf7;" horiz-adv-x="1706" d="M254 496v231h1198v-231h-1198zM688 205q0 68 49 117t117 49t116 -48.5t48 -117.5q0 -68 -47.5 -116t-116.5 -48t-117.5 48t-48.5 116zM688 1016q0 68 49 117t117 49q67 0 115.5 -49t48.5 -117t-48.5 -116t-117.5 -48t-116.5 48t-47.5 116z" />
<glyph unicode="&#xf8;" horiz-adv-x="1128" d="M33 18l133 160q-56 70 -84.5 154t-28.5 182q0 107 39.5 202.5t114.5 168.5q74 73 164.5 111t187.5 38q71 0 136.5 -17.5t121.5 -51.5l125 151l148 -121l-129 -153q58 -72 87 -156.5t29 -179.5q0 -222 -147.5 -372t-364.5 -150q-71 0 -134.5 16.5t-123.5 50.5l-129 -153z M358 510q0 -17 5.5 -39.5t17.5 -54.5l252 305q-23 9 -40 12.5t-32 3.5q-80 0 -141.5 -67.5t-61.5 -159.5zM492 297q23 -7 42.5 -10.5t36.5 -3.5q80 0 137.5 66.5t57.5 160.5q0 22 -4.5 46t-14.5 50z" />
<glyph unicode="&#xf9;" horiz-adv-x="1096" d="M82 500v514h317v-565q0 -71 41.5 -115.5t106.5 -44.5t106 44.5t41 115.5v565h318v-514q0 -237 -127.5 -377.5t-337.5 -140.5q-115 0 -213 49.5t-166 142.5q-45 63 -65.5 139t-20.5 187zM256 1497h258l197 -371h-142z" />
<glyph unicode="&#xfa;" horiz-adv-x="1096" d="M82 500v514h317v-565q0 -71 41.5 -115.5t106.5 -44.5t106 44.5t41 115.5v565h318v-514q0 -237 -127.5 -377.5t-337.5 -140.5q-115 0 -213 49.5t-166 142.5q-45 63 -65.5 139t-20.5 187zM387 1126l197 371h258l-313 -371h-142z" />
<glyph unicode="&#xfb;" horiz-adv-x="1096" d="M82 500v514h317v-565q0 -71 41.5 -115.5t106.5 -44.5t106 44.5t41 115.5v565h318v-514q0 -237 -127.5 -377.5t-337.5 -140.5q-115 0 -213 49.5t-166 142.5q-45 63 -65.5 139t-20.5 187zM234 1126l196 371h238l196 -371h-141l-174 220l-176 -220h-139z" />
<glyph unicode="&#xfc;" horiz-adv-x="1096" d="M82 500v514h317v-565q0 -71 41.5 -115.5t106.5 -44.5t106 44.5t41 115.5v565h318v-514q0 -237 -127.5 -377.5t-337.5 -140.5q-115 0 -213 49.5t-166 142.5q-45 63 -65.5 139t-20.5 187zM244 1311q0 51 39.5 90t91.5 39q54 0 91.5 -38t37.5 -91q0 -58 -36 -94.5t-93 -36.5 q-55 0 -93 37.5t-38 93.5zM594 1311q0 51 39.5 90t91.5 39q54 0 91.5 -38t37.5 -91q0 -58 -36 -94.5t-93 -36.5q-55 0 -93 37.5t-38 93.5z" />
<glyph unicode="&#xfd;" horiz-adv-x="1096" d="M82 489v525h317v-576q0 -70 41.5 -114.5t106.5 -44.5t106 44.5t41 114.5v576h318v-525q0 -190 -74 -308t-233 -183v-434h-318v434q-160 68 -232.5 184.5t-72.5 306.5zM387 1126l197 371h258l-313 -371h-142z" />
<glyph unicode="&#xfe;" horiz-adv-x="1149" d="M84 -436v1868h317v-431q50 17 97.5 25t93.5 8q219 0 363.5 -148.5t144.5 -375.5q0 -228 -144 -376t-366 -148q-31 0 -66.5 4t-72.5 12v332q47 -14 77 -20.5t50 -6.5q90 0 143 55t53 148q0 91 -49.5 146t-130.5 55q-96 0 -144.5 -56.5t-48.5 -169.5v-921h-317z" />
<glyph unicode="&#xff;" horiz-adv-x="1096" d="M82 489v525h317v-576q0 -70 41.5 -114.5t106.5 -44.5t106 44.5t41 114.5v576h318v-525q0 -190 -74 -308t-233 -183v-434h-318v434q-160 68 -232.5 184.5t-72.5 306.5zM244 1311q0 51 39.5 90t91.5 39q54 0 91.5 -38t37.5 -91q0 -58 -36 -94.5t-93 -36.5q-55 0 -93 37.5 t-38 93.5zM594 1311q0 51 39.5 90t91.5 39q54 0 91.5 -38t37.5 -91q0 -58 -36 -94.5t-93 -36.5q-55 0 -93 37.5t-38 93.5z" />
<glyph unicode="&#x152;" horiz-adv-x="2142" d="M57 717q0 148 55 282t160 240q104 106 237 161.5t279 55.5q154 0 288 -63.5t249 -190.5q110 119 274.5 174.5t407.5 55.5h29l-1 -326q-13 1 -28.5 1.5t-44.5 0.5q-188 0 -299.5 -55t-159.5 -170h533v-320h-541q35 -118 154 -177.5t319 -59.5q27 0 41.5 0.5t26.5 0.5v-327 h-37q-232 0 -397.5 56t-276.5 171q-112 -126 -246 -189t-291 -63q-97 0 -189.5 25.5t-174.5 75.5q-175 106 -271 273.5t-96 367.5zM422 719q0 -161 109 -274t262 -113t260.5 112.5t107.5 274.5t-107 273.5t-261 111.5q-155 0 -263 -112t-108 -273z" />
<glyph unicode="&#x153;" horiz-adv-x="1831" d="M51 508q0 105 39 200t113 171q74 75 166 115t192 40q102 0 189.5 -38.5t160.5 -114.5q78 77 163 115t181 38q159 0 282.5 -81.5t203.5 -239.5l-492 -334l-123 186l265 185q-27 17 -54.5 25.5t-58.5 8.5q-94 0 -159.5 -71.5t-65.5 -175.5q0 -108 65.5 -179t165.5 -71 q84 0 157.5 53t127.5 154l241 -117q-80 -188 -221.5 -291.5t-316.5 -103.5q-104 0 -195 39t-164 114q-77 -77 -164.5 -115t-187.5 -38q-68 0 -134.5 18t-119.5 51q-123 76 -189.5 194.5t-66.5 262.5zM379 510q0 -86 54 -146.5t130 -60.5q77 0 132 60.5t55 146.5t-55 146.5 t-132 60.5q-76 0 -130 -60.5t-54 -146.5z" />
<glyph unicode="&#x178;" horiz-adv-x="1165" d="M86 1022v410h352v-449q0 -88 38 -135t108 -47q69 0 106 47t37 135v449h354v-410q0 -201 -80 -332t-241 -194v-496h-354v498q-162 64 -241 193.5t-79 330.5zM279 1749q0 51 39.5 90t91.5 39q54 0 91.5 -38t37.5 -91q0 -58 -36 -94.5t-93 -36.5q-55 0 -93 37.5t-38 93.5z M629 1749q0 51 39.5 90t91.5 39q54 0 91.5 -38t37.5 -91q0 -58 -36 -94.5t-93 -36.5q-55 0 -93 37.5t-38 93.5z" />
<glyph unicode="&#x2c6;" horiz-adv-x="1024" d="M197 1126l196 371h238l196 -371h-141l-174 220l-176 -220h-139z" />
<glyph unicode="&#x2dc;" horiz-adv-x="1024" d="M195 1176q24 121 74 178t130 57q20 0 41.5 -3.5t44.5 -10.5l93 -25q12 -4 25.5 -6t29.5 -2q33 0 54 21t32 63h110q-26 -124 -77 -183t-131 -59q-21 0 -39 2.5t-36 8.5l-87 24q-29 8 -41.5 10t-24.5 2q-34 0 -55 -18.5t-33 -58.5h-110z" />
<glyph unicode="&#x2000;" horiz-adv-x="983" />
<glyph unicode="&#x2001;" horiz-adv-x="1966" />
<glyph unicode="&#x2002;" horiz-adv-x="983" />
<glyph unicode="&#x2003;" horiz-adv-x="1966" />
<glyph unicode="&#x2004;" horiz-adv-x="655" />
<glyph unicode="&#x2005;" horiz-adv-x="491" />
<glyph unicode="&#x2006;" horiz-adv-x="327" />
<glyph unicode="&#x2007;" horiz-adv-x="327" />
<glyph unicode="&#x2008;" horiz-adv-x="245" />
<glyph unicode="&#x2009;" horiz-adv-x="393" />
<glyph unicode="&#x200a;" horiz-adv-x="109" />
<glyph unicode="&#x2010;" horiz-adv-x="678" d="M70 379v264h538v-264h-538z" />
<glyph unicode="&#x2011;" horiz-adv-x="678" d="M70 379v264h538v-264h-538z" />
<glyph unicode="&#x2012;" horiz-adv-x="678" d="M70 379v264h538v-264h-538z" />
<glyph unicode="&#x2013;" horiz-adv-x="1024" d="M0 395v223h1024v-223h-1024z" />
<glyph unicode="&#x2014;" horiz-adv-x="2048" d="M0 395v223h2048v-223h-2048z" />
<glyph unicode="&#x2018;" horiz-adv-x="578" d="M127 961l117 471h217l-64 -471h-270z" />
<glyph unicode="&#x2019;" horiz-adv-x="578" d="M143 961l62 471h272l-117 -471h-217z" />
<glyph unicode="&#x201a;" horiz-adv-x="578" d="M123 -233l63 471h271l-117 -471h-217z" />
<glyph unicode="&#x201c;" horiz-adv-x="995" d="M127 961l117 471h217l-64 -471h-270zM545 961l117 471h217l-64 -471h-270z" />
<glyph unicode="&#x201d;" horiz-adv-x="995" d="M143 961l62 471h272l-117 -471h-217zM559 961l64 471h270l-117 -471h-217z" />
<glyph unicode="&#x201e;" horiz-adv-x="995" d="M123 -233l63 471h271l-117 -471h-217zM541 -233l63 471h270l-116 -471h-217z" />
<glyph unicode="&#x2022;" horiz-adv-x="1208" d="M307 762q0 123 87 209t210 86q122 0 208.5 -86.5t86.5 -208.5t-87.5 -209.5t-209.5 -87.5q-123 0 -209 87t-86 210z" />
<glyph unicode="&#x2026;" horiz-adv-x="2048" d="M137 176q0 87 59 146t146 59t146 -59t59 -146q0 -84 -60 -143.5t-145 -59.5t-145 59.5t-60 143.5zM819 176q0 87 59 146t146 59t146 -59t59 -146q0 -84 -60 -143.5t-145 -59.5t-145 59.5t-60 143.5zM1503 176q0 87 59 146t146 59t146 -59t59 -146q0 -84 -60 -143.5 t-145 -59.5t-145 59.5t-60 143.5z" />
<glyph unicode="&#x202f;" horiz-adv-x="393" />
<glyph unicode="&#x2039;" horiz-adv-x="702" d="M117 508l256 321h231l-256 -321l256 -324h-231z" />
<glyph unicode="&#x203a;" horiz-adv-x="702" d="M98 184l256 324l-256 321h230l256 -321l-256 -324h-230z" />
<glyph unicode="&#x205f;" horiz-adv-x="491" />
<glyph unicode="&#x2122;" horiz-adv-x="1706" d="M188 1337v127h502v-127h-164v-424h-174v424h-164zM797 913v551h223l113 -303l114 303h221v-551h-155v390l-146 -390h-65l-150 390v-390h-155z" />
<glyph unicode="&#xe000;" horiz-adv-x="1014" d="M0 0v1015h1015v-1015h-1015z" />
</font>
</defs>
</svg>
